<?xml version="1.0" encoding="utf-8"?>
<!-- Generator: Adobe Illustrator 19.0.0, SVG Export Plug-In . SVG Version: 6.00 Build 0)  -->
<svg version="1.1" id="Capa_1" xmlns="http://www.w3.org/2000/svg" xmlns:xlink="http://www.w3.org/1999/xlink" x="0px" y="0px"
	 viewBox="-103 87 623 623" style="enable-background:new -103 87 623 623;" xml:space="preserve">
<style type="text/css">
	.st0{fill:#FFCC80;}
	.st1{fill:#FFB74D;}
</style>
<path class="st0" d="M367,301c-17.7,0-32,14.3-32,32v-21.3c0-17.7-14.3-32-32-32s-32,14.3-32,32v-21.3c0-17.7-14.3-32-32-32
	s-32,14.3-32,32V183.7c0-17.7-14.3-32-32-32s-32,14.3-32,32v266.7l-74.1-37c-7.4-3.7-15.6-5.6-23.9-5.6c-16.6,0-30.1,13.5-30.1,30.1
	v0.1c0,8,3.2,15.7,8.8,21.3l137.9,137.9c29,29,68.3,45.2,109.2,45.2l0,0c70.7,0,128-57.3,128-128V333C399,315.3,384.7,301,367,301z"
	/>
<g>
	<path class="st1" d="M217.7,266.7v119.7c0,5.9-4.8,10.7-10.7,10.7V290.3C207,281.3,210.9,272.6,217.7,266.7z"/>
	<path class="st1" d="M281.7,288v98.3c0,5.9-4.8,10.7-10.7,10.7v-85.3C271,302.6,274.9,294,281.7,288z"/>
	<path class="st1" d="M345.7,309.3v77c0,5.9-4.8,10.7-10.7,10.7v-64C335,323.9,338.9,315.3,345.7,309.3z"/>
</g>
<path d="M271,653c-43.8,0.1-85.9-17.3-116.8-48.4L16.3,466.7c-15.9-16-15.9-41.8,0-57.7c7.6-7.6,18-11.9,28.8-12
	c9.9,0,19.7,2.3,28.6,6.7l58.6,29.3V183.7c0-23.6,19.1-42.7,42.7-42.7s42.7,19.1,42.7,42.7v69.7c20.4-11.8,46.5-4.8,58.3,15.6
	c1.3,2.3,2.4,4.7,3.3,7.2c19.6-13.1,46.1-7.9,59.2,11.7c2,3,3.6,6.2,4.8,9.6c19.6-13.1,46.1-7.8,59.2,11.7c4.7,7,7.2,15.3,7.2,23.7
	v181.3C409.6,590.9,347.5,652.9,271,653z M45.1,418.3c-10.8,0-19.5,8.8-19.4,19.6c0,5.1,2.1,10.1,5.7,13.7l137.9,137.9
	c26.9,27.1,63.5,42.2,101.7,42.1c64.8-0.1,117.3-52.6,117.3-117.3V333c0-11.8-9.6-21.3-21.3-21.3s-21.3,9.6-21.3,21.3v53.3
	c0,5.9-4.8,10.7-10.7,10.7s-10.7-4.8-10.7-10.7v-74.7c0-11.8-9.6-21.3-21.3-21.3s-21.3,9.6-21.3,21.3v74.7c0,5.9-4.8,10.7-10.7,10.7
	s-10.7-4.8-10.7-10.7v-96c0-11.8-9.6-21.3-21.3-21.3s-21.3,9.6-21.3,21.3v96c0,5.9-4.8,10.7-10.7,10.7c-5.9,0-10.7-4.8-10.7-10.7
	V183.7c0-11.8-9.6-21.3-21.3-21.3c-11.8,0-21.3,9.6-21.3,21.3v266.7c0,5.9-4.8,10.7-10.7,10.7c-1.7,0-3.3-0.4-4.8-1.1l-74.2-37
	C58.2,419.9,51.7,418.4,45.1,418.3z"/>
</svg>
